<svg width="16" height="16" viewBox="0 0 16 16" fill="none" xmlns="http://www.w3.org/2000/svg">
<path d="M7.99978 0C4.93822 0 2.44751 2.49108 2.44751 5.55271C2.44751 8.4998 7.48518 15.3852 7.69968 15.6768L7.89987 15.9493C7.92328 15.9813 7.96056 16 7.99978 16C8.03961 16 8.07664 15.9813 8.1003 15.9493L8.30036 15.6768C8.51498 15.3852 13.5525 8.4998 13.5525 5.55271C13.5525 2.49108 11.0614 0 7.99978 0ZM7.99978 3.56374C9.09674 3.56374 9.98875 4.45579 9.98875 5.55271C9.98875 6.64907 9.0967 7.54168 7.99978 7.54168C6.90346 7.54168 6.01081 6.64907 6.01081 5.55271C6.01081 4.45579 6.90342 3.56374 7.99978 3.56374Z" fill="black"/>
</svg>
