<svg width="25" height="24" viewBox="0 0 25 24" fill="none" xmlns="http://www.w3.org/2000/svg">
<mask id="mask0_1_145" style="mask-type:alpha" maskUnits="userSpaceOnUse" x="0" y="0" width="25" height="24">
<rect x="0.5" width="24" height="24" fill="#D9D9D9"/>
</mask>
<g mask="url(#mask0_1_145)">
<path d="M5.90387 21C5.39875 21 4.97119 20.825 4.62119 20.475C4.27119 20.125 4.09619 19.6974 4.09619 19.1923V5.30773C4.09619 4.80259 4.27119 4.37503 4.62119 4.02503C4.97119 3.67503 5.39875 3.50003 5.90387 3.50003H12.6154V5H5.90387C5.82693 5 5.75642 5.03205 5.69232 5.09615C5.6282 5.16027 5.59614 5.23079 5.59614 5.30773V19.1923C5.59614 19.2693 5.6282 19.3398 5.69232 19.4039C5.75642 19.468 5.82693 19.5 5.90387 19.5H12.6154V21H5.90387ZM16.6346 16.5192L15.5962 15.4346L18.0308 13H9.61539V11.5H18.0308L15.5962 9.06543L16.6346 7.98085L20.9038 12.25L16.6346 16.5192Z" fill="white"/>
</g>
</svg>
