<svg width="142" height="29" viewBox="0 0 142 29" fill="none" xmlns="http://www.w3.org/2000/svg">
<path d="M0.604047 11.3587C0.586875 9.5028 0.945191 7.8781 1.679 6.4846C2.43413 5.09092 3.48022 4.01456 4.81725 3.25553C6.17562 2.49631 7.72943 2.10863 9.47869 2.09251C11.7186 2.07185 13.5906 2.64129 15.0947 3.8008C16.6202 4.96012 17.6275 6.60424 18.1165 8.73315L12.2928 8.78685C11.7895 7.4261 10.8339 6.75221 9.42592 6.76519C8.4233 6.77444 7.62699 7.17646 7.03698 7.97127C6.44678 8.74474 6.15839 9.85678 6.17181 11.3074C6.18523 12.758 6.49425 13.8752 7.09886 14.659C7.70328 15.4214 8.50679 15.7981 9.50942 15.7888C10.9174 15.7758 11.8603 15.0844 12.3383 13.7146L18.1621 13.6609C17.7121 15.7558 16.7354 17.4076 15.2318 18.6162C13.7283 19.8247 11.8672 20.4393 9.64864 20.4597C7.89938 20.4758 6.33866 20.1169 4.96648 19.3828C3.61563 18.6486 2.5498 17.5917 1.769 16.2122C1.00954 14.8325 0.62122 13.2146 0.604047 11.3587ZM19.9779 11.1481C19.961 9.3135 20.2874 7.69976 20.9572 6.30686C21.6483 4.91376 22.5877 3.83839 23.7754 3.08074C24.9632 2.32309 26.293 1.93748 27.7649 1.92391C29.0235 1.9123 30.1245 2.15816 31.0679 2.66148C32.0326 3.16461 32.7748 3.8298 33.2944 4.65704L33.2711 2.12915L38.7428 2.0787L38.908 19.9339L33.4363 19.9844L33.4129 17.4565C32.8873 18.2934 32.1468 18.9722 31.1916 19.4931C30.2577 20.0137 29.1615 20.2798 27.9029 20.2914C26.4523 20.3048 25.1262 19.9437 23.9247 19.208C22.723 18.4511 21.7637 17.3826 21.0469 16.0024C20.3512 14.6008 19.9949 12.9827 19.9779 11.1481ZM33.3537 11.0568C33.341 9.69149 32.9471 8.61775 32.1718 7.83553C31.4179 7.05311 30.4969 6.66692 29.409 6.67695C28.321 6.68698 27.3967 7.09019 26.636 7.88657C25.8965 8.66142 25.5331 9.73148 25.5457 11.0968C25.5583 12.462 25.9417 13.5465 26.6958 14.3503C27.4711 15.1325 28.4027 15.5186 29.4907 15.5086C30.5786 15.4985 31.4923 15.0954 32.2316 14.2993C32.9923 13.5029 33.3663 12.422 33.3537 11.0568ZM48.2007 4.96762C48.8316 3.98043 49.6245 3.20509 50.5793 2.6416C51.5339 2.05677 52.5979 1.75895 53.7712 1.74813L53.8247 7.53988L52.3208 7.55375C50.9555 7.56633 49.9343 7.87443 49.2572 8.47803C48.5799 9.0603 48.2481 10.0874 48.2617 11.5593L48.3384 19.847L42.8666 19.8974L42.7014 2.0422L48.1732 1.99175L48.2007 4.96762ZM61.6316 15.2122L69.3752 15.1408L69.417 19.6526L55.5616 19.7804L55.5213 15.4286L62.8618 6.36851L55.5021 6.43637L55.4604 1.92456L69.0918 1.79888L69.132 6.15069L61.6316 15.2122ZM77.7578 4.24708C78.2834 3.4102 79.0132 2.73145 79.9471 2.21081C80.8809 1.69018 81.9772 1.42406 83.2358 1.41246C84.7078 1.39889 86.0445 1.75991 87.246 2.49553C88.4475 3.23115 89.396 4.28912 90.0915 5.66943C90.8083 7.04955 91.1752 8.6569 91.1922 10.4915C91.2091 12.3261 90.8721 13.9506 90.1812 15.365C89.5114 16.7579 88.5827 17.8439 87.3952 18.6228C86.2075 19.3805 84.8777 19.7661 83.4058 19.7797C82.1685 19.7911 81.0675 19.5452 80.1028 19.0421C79.1594 18.5388 78.4173 17.8843 77.8765 17.0785L77.9784 28.0861L72.5066 28.1365L72.2626 1.76964L77.7344 1.71919L77.7578 4.24708ZM85.6244 10.5428C85.6118 9.17755 85.2179 8.11447 84.4428 7.35358C83.6889 6.57117 82.7573 6.18507 81.648 6.1953C80.56 6.20533 79.6357 6.60854 78.8751 7.40492C78.1357 8.2011 77.7724 9.28183 77.785 10.6471C77.7977 12.0124 78.1809 13.0862 78.9349 13.8686C79.7101 14.6509 80.6418 15.037 81.7297 15.0269C82.8177 15.0169 83.742 14.6137 84.5026 13.8173C85.2631 12.9996 85.637 11.9081 85.6244 10.5428ZM92.9748 10.4751C92.9579 8.64046 93.2843 7.02672 93.9541 5.63382C94.6452 4.24072 95.5846 3.16535 96.7724 2.4077C97.9601 1.65005 99.2899 1.26444 100.762 1.25087C102.02 1.23926 103.121 1.48512 104.065 1.98844C105.029 2.49157 105.772 3.15676 106.291 3.984L106.268 1.45611L111.74 1.40566L111.905 19.2609L106.433 19.3113L106.41 16.7835C105.884 17.6203 105.144 18.2992 104.189 18.82C103.255 19.3407 102.158 19.6068 100.9 19.6184C99.4492 19.6318 98.1231 19.2706 96.9216 18.535C95.7199 17.7781 94.7606 16.7095 94.0438 15.3294C93.3481 13.9278 92.9918 12.3096 92.9748 10.4751ZM106.351 10.3837C106.338 9.01845 105.944 7.94471 105.169 7.16249C104.415 6.38007 103.494 5.99388 102.406 6.00391C101.318 6.01394 100.394 6.41715 99.6329 7.21353C98.8934 7.98838 98.53 9.05844 98.5426 10.4237C98.5552 11.789 98.9386 12.8735 99.6927 13.6773C100.468 14.4595 101.4 14.8456 102.488 14.8355C103.576 14.8255 104.489 14.4224 105.229 13.6262C105.989 12.8298 106.363 11.749 106.351 10.3837ZM133.938 1.20099L122.982 27.6391L117.094 27.6934L121.106 18.568L113.682 1.38775L119.794 1.3314L124.025 12.4609L128.018 1.25557L133.938 1.20099Z" fill="black"/>
<path d="M138.644 19.2704C137.684 19.2792 136.892 19.0092 136.268 18.4602C135.665 17.8898 135.36 17.1886 135.353 16.3566C135.345 15.5033 135.637 14.7859 136.229 14.2044C136.842 13.6227 137.629 13.3275 138.589 13.3186C139.527 13.31 140.298 13.5909 140.9 14.1613C141.524 14.7316 141.84 15.4434 141.848 16.2967C141.856 17.1287 141.553 17.8355 140.94 18.4172C140.348 18.9773 139.582 19.2617 138.644 19.2704Z" fill="#057AFF"/>
</svg>
