<svg width="17" height="20" viewBox="0 0 17 20" fill="none" xmlns="http://www.w3.org/2000/svg">
<path d="M3.40081 1.59003C4.36574 0.916254 5.42326 0.462257 6.57277 0.197465C7.46827 -0.00881757 8.38494 -0.0321603 9.2932 0.0307792C10.2495 0.0970474 11.1733 0.339791 12.0464 0.72836C12.8186 1.07206 13.5279 1.49917 14.1696 2.03767C14.9424 2.68632 15.5471 3.44462 16.0385 4.29699C16.4641 5.03512 16.7597 5.81953 16.8854 6.64019C16.9901 7.32404 17.0311 8.03127 16.9744 8.71896C16.8798 9.86514 16.5049 10.9512 15.9809 11.9956C15.4153 13.1228 14.7218 14.1717 13.893 15.1383C13.3271 15.7982 12.7266 16.4333 12.1178 17.059C11.674 17.5151 11.21 17.9572 10.7214 18.3704C10.0909 18.9038 9.42789 19.4034 8.7765 19.9148C8.6356 20.0254 8.36901 20.0287 8.22788 19.9225C7.83217 19.6248 7.42639 19.3372 7.0498 19.0191C6.39127 18.463 5.71762 17.9172 5.11268 17.3119C4.37213 16.5709 3.68751 15.7796 2.99386 14.9981C2.24755 14.1573 1.65467 13.2196 1.13332 12.2446C0.647818 11.3367 0.264288 10.3829 0.11073 9.37669C0.00424801 8.67895 -0.0253354 7.95885 0.0215434 7.25528C0.0862001 6.28488 0.386225 5.35293 0.84934 4.48019C1.1844 3.84878 1.56903 3.23907 2.1029 2.73415C2.51696 2.34253 2.95949 1.97756 3.40081 1.59003ZM3.38944 4.43056C2.33488 5.79966 1.94316 7.3194 2.2163 8.99104C2.76534 12.3512 6.39548 14.6432 9.91425 13.8506C13.2455 13.1003 15.3131 10.1872 14.7769 6.99933C14.3121 4.23591 11.6694 2.06456 8.69921 2.02151C6.51915 1.98991 4.75691 2.7967 3.38944 4.43056Z" fill="#71839B"/>
<path d="M3.39907 4.41868C4.75703 2.79672 6.51926 1.98993 8.69933 2.02152C11.6695 2.06457 14.3122 4.23593 14.777 6.99935C15.3132 10.1872 13.2456 13.1003 9.91436 13.8506C6.3956 14.6432 2.76545 12.3512 2.21642 8.99105C1.94328 7.31942 2.335 5.79967 3.39907 4.41868ZM7.14554 7.14711C6.31305 7.93016 5.47566 8.70867 4.64983 9.49789C4.12013 10.0041 4.12018 10.7748 4.63037 11.2764C5.13514 11.7727 5.96597 11.8264 6.49892 11.3451C7.37411 10.5548 8.21705 9.73294 9.11124 8.91425C9.19054 8.92357 9.27051 8.92942 9.34904 8.94275C10.4055 9.12201 11.3176 8.85304 12.0264 8.10001C12.7408 7.34096 12.9201 6.45006 12.5879 5.47988C12.4671 5.12732 12.1855 5.07067 11.9028 5.33374C11.5831 5.6312 11.2672 5.93224 10.9477 6.22989C10.9021 6.27244 10.8468 6.33483 10.7939 6.33674C10.5032 6.34723 10.2119 6.34175 9.91394 6.34175C9.91394 6.0955 9.89982 5.87955 9.91995 5.66647C9.92988 5.56135 9.97727 5.4389 10.0522 5.3633C10.3485 5.06421 10.6634 4.78134 10.9697 4.49093C11.2784 4.19829 11.2125 3.94432 10.7958 3.81365C8.84261 3.20108 6.85828 4.7402 7.1177 6.66602C7.13871 6.82206 7.15417 6.97876 7.14554 7.14711Z" fill="#F5F5F5"/>
<path d="M7.17195 7.13515C7.15391 6.97875 7.13846 6.82205 7.11744 6.66601C6.85802 4.74018 8.84235 3.20107 10.7956 3.81364C11.2122 3.94431 11.2781 4.19828 10.9694 4.49092C10.6631 4.78133 10.3483 5.06419 10.0519 5.36329C9.97701 5.43889 9.92962 5.56134 9.91969 5.66645C9.89956 5.87954 9.91368 6.09549 9.91368 6.34173C10.2116 6.34173 10.503 6.34721 10.7936 6.33673C10.8465 6.33482 10.9018 6.27242 10.9475 6.22988C11.2669 5.93222 11.5828 5.63118 11.9025 5.33372C12.1852 5.07065 12.4669 5.12731 12.5876 5.47987C12.9198 6.45005 12.7405 7.34095 12.0261 8.1C11.3174 8.85303 10.4052 9.12199 9.34878 8.94274C9.27025 8.92941 9.19028 8.92356 9.08302 8.90772C8.99808 8.87171 8.94345 8.8369 8.88376 8.81352C8.12997 8.51826 7.59858 8.01571 7.28516 7.30665C7.25806 7.24532 7.21018 7.19212 7.17195 7.13515Z" fill="#71839B"/>
<path d="M7.15877 7.14111C7.21033 7.19211 7.25821 7.24531 7.28532 7.30663C7.59873 8.0157 8.13012 8.51825 8.88391 8.81351C8.9436 8.83689 8.99823 8.8717 9.06434 8.91277C8.21694 9.73291 7.374 10.5548 6.49881 11.3451C5.96587 11.8263 5.13503 11.7727 4.63027 11.2764C4.12007 10.7748 4.12002 10.0041 4.64973 9.49787C5.47556 8.70865 6.31294 7.93014 7.15877 7.14111Z" fill="#71839B"/>
</svg>
