<svg width="18" height="18" viewBox="0 0 18 18" fill="none" xmlns="http://www.w3.org/2000/svg">
<path d="M2.82367 0.948454C1.58415 1.21397 0.620869 2.11318 0.231307 3.37349L0.149853 3.63546L0.139229 9.26436C0.128604 15.4668 0.11798 15.134 0.348176 15.7252C0.677533 16.5819 1.43895 17.3395 2.29245 17.6688C2.85908 17.8883 2.8095 17.8847 6.17036 17.8847H9.23374V9.38827V0.891811L6.14557 0.895351C3.64529 0.895351 3.01136 0.905972 2.82367 0.948454Z" fill="#71839B"/>
<path d="M10.2961 4.85682V8.82184H13.7137H17.1347L17.1241 6.22688C17.1099 3.64608 17.1099 3.63546 17.032 3.37348C16.6708 2.1946 15.8279 1.35203 14.6486 0.990934C14.3901 0.913049 14.3476 0.913049 12.3431 0.898889L10.2961 0.888268V4.85682Z" fill="#71839B"/>
<path d="M10.2961 13.902V17.8883L12.3431 17.8777C14.3476 17.8635 14.3901 17.8635 14.6486 17.7856C15.2471 17.6015 15.7146 17.3254 16.1431 16.897C16.5716 16.4687 16.8479 16.0049 17.032 15.4031C17.1099 15.1411 17.1099 15.1305 17.1241 12.5284L17.1347 9.9193H13.7137H10.2961V13.902Z" fill="#71839B"/>
</svg>
