<svg width="20" height="20" viewBox="0 0 20 20" fill="none" xmlns="http://www.w3.org/2000/svg">
<path fill-rule="evenodd" clip-rule="evenodd" d="M19.7872 8.17381C19.6518 8.33823 19.4681 8.43218 19.2747 8.43218C18.559 8.43218 17.9787 9.13682 17.9787 9.99413C17.9787 10.8573 18.5522 11.5584 19.2611 11.5678C19.6605 11.5725 20 11.9107 20 12.3958V15.4081C20 17.9436 18.3075 20 16.2186 20H13.0658C12.7398 20 12.4758 19.6794 12.4758 19.2836V16.7469C12.4758 16.2537 12.1567 15.8661 11.7505 15.8661C11.354 15.8661 11.0251 16.2537 11.0251 16.7469V19.2836C11.0251 19.6794 10.7611 20 10.4362 20H3.78143C1.70213 20 0 17.9448 0 15.4081V12.3958C0 11.9107 0.339458 11.5725 0.738878 11.5678C1.44874 11.5584 2.02128 10.8573 2.02128 9.99413C2.02128 9.16031 1.46035 8.52613 0.725339 8.52613C0.531915 8.52613 0.348162 8.43218 0.212766 8.26776C0.0773694 8.10335 0 7.88021 0 7.64533V4.60364C0 2.07164 1.706 0 3.7911 0H10.4362C10.7611 0 11.0251 0.320611 11.0251 0.716383V3.72284C11.0251 4.20435 11.354 4.60364 11.7505 4.60364C12.1567 4.60364 12.4758 4.20435 12.4758 3.72284V0.716383C12.4758 0.320611 12.7398 0 13.0658 0H16.2186C18.3075 0 20 2.0552 20 4.5919V7.55138C20 7.78626 19.9226 8.00939 19.7872 8.17381ZM11.7505 13.5878C12.1567 13.5878 12.4758 13.1885 12.4758 12.707V8.00942C12.4758 7.52791 12.1567 7.12862 11.7505 7.12862C11.354 7.12862 11.0251 7.52791 11.0251 8.00942V12.707C11.0251 13.1885 11.354 13.5878 11.7505 13.5878Z" fill="#71839B"/>
</svg>
