<svg width="20" height="21" viewBox="0 0 20 21" fill="none" xmlns="http://www.w3.org/2000/svg">
<path d="M17.075 7.03529C17.0703 7.01332 17.0703 6.99059 17.075 6.96862C17.071 6.94939 17.071 6.92952 17.075 6.91029V6.83529L17.025 6.71029C17.0047 6.67618 16.9794 6.64529 16.95 6.61862L16.875 6.55196H16.8333L13.55 4.47696L10.45 2.56029C10.3783 2.5034 10.2962 2.46095 10.2083 2.43529H10.1417C10.0672 2.42286 9.99115 2.42286 9.91666 2.43529H9.83333C9.73653 2.4567 9.64372 2.49326 9.55833 2.54362L3.33333 6.41862L3.25833 6.47695L3.18333 6.54362L3.1 6.60196L3.05833 6.65196L3.00833 6.77696V6.85196V6.90196C3.00023 6.95722 3.00023 7.01336 3.00833 7.06862V14.3436C3.00805 14.4852 3.04386 14.6246 3.11239 14.7485C3.18092 14.8725 3.2799 14.9769 3.4 15.052L9.65 18.9186L9.775 18.9686H9.84166C9.98265 19.0133 10.134 19.0133 10.275 18.9686H10.3417L10.4667 18.9186L16.6667 15.1103C16.7868 15.0352 16.8857 14.9308 16.9543 14.8069C17.0228 14.6829 17.0586 14.5436 17.0583 14.402V7.12696C17.0583 7.12696 17.075 7.06862 17.075 7.03529ZM10 4.24362L11.4833 5.16029L6.825 8.04362L5.33333 7.12696L10 4.24362ZM9.16666 16.7436L4.58333 13.9436V8.61862L9.16666 11.452V16.7436ZM10 9.98529L8.40833 9.02695L13.0667 6.13529L14.6667 7.12696L10 9.98529ZM15.4167 13.9186L10.8333 16.7686V11.452L15.4167 8.61862V13.9186Z" fill="#71839B"/>
</svg>
