<svg width="20" height="21" viewBox="0 0 20 21" fill="none" xmlns="http://www.w3.org/2000/svg">
<path d="M15.8334 4.10197H14.1667V3.26864C14.1667 3.04762 14.079 2.83566 13.9227 2.67938C13.7664 2.5231 13.5544 2.4353 13.3334 2.4353C13.1124 2.4353 12.9004 2.5231 12.7442 2.67938C12.5879 2.83566 12.5001 3.04762 12.5001 3.26864V4.10197H7.50008V3.26864C7.50008 3.04762 7.41228 2.83566 7.256 2.67938C7.09972 2.5231 6.88776 2.4353 6.66675 2.4353C6.44573 2.4353 6.23377 2.5231 6.07749 2.67938C5.92121 2.83566 5.83341 3.04762 5.83341 3.26864V4.10197H4.16675C3.50371 4.10197 2.86782 4.36536 2.39898 4.8342C1.93014 5.30304 1.66675 5.93893 1.66675 6.60197V16.602C1.66675 17.265 1.93014 17.9009 2.39898 18.3697C2.86782 18.8386 3.50371 19.102 4.16675 19.102H15.8334C16.4965 19.102 17.1323 18.8386 17.6012 18.3697C18.07 17.9009 18.3334 17.265 18.3334 16.602V6.60197C18.3334 5.93893 18.07 5.30304 17.6012 4.8342C17.1323 4.36536 16.4965 4.10197 15.8334 4.10197V4.10197ZM16.6667 16.602C16.6667 16.823 16.579 17.0349 16.4227 17.1912C16.2664 17.3475 16.0544 17.4353 15.8334 17.4353H4.16675C3.94573 17.4353 3.73377 17.3475 3.57749 17.1912C3.42121 17.0349 3.33341 16.823 3.33341 16.602V10.7686H16.6667V16.602ZM16.6667 9.10197H3.33341V6.60197C3.33341 6.38096 3.42121 6.16899 3.57749 6.01271C3.73377 5.85643 3.94573 5.76864 4.16675 5.76864H5.83341V6.60197C5.83341 6.82298 5.92121 7.03494 6.07749 7.19123C6.23377 7.34751 6.44573 7.4353 6.66675 7.4353C6.88776 7.4353 7.09972 7.34751 7.256 7.19123C7.41228 7.03494 7.50008 6.82298 7.50008 6.60197V5.76864H12.5001V6.60197C12.5001 6.82298 12.5879 7.03494 12.7442 7.19123C12.9004 7.34751 13.1124 7.4353 13.3334 7.4353C13.5544 7.4353 13.7664 7.34751 13.9227 7.19123C14.079 7.03494 14.1667 6.82298 14.1667 6.60197V5.76864H15.8334C16.0544 5.76864 16.2664 5.85643 16.4227 6.01271C16.579 6.16899 16.6667 6.38096 16.6667 6.60197V9.10197Z" fill="#71839B"/>
</svg>
