<svg width="20" height="21" viewBox="0 0 20 21" fill="none" xmlns="http://www.w3.org/2000/svg">
<path d="M8.33333 11.6019H3.33333C3.11232 11.6019 2.90036 11.6897 2.74408 11.846C2.5878 12.0023 2.5 12.2143 2.5 12.4353V17.4353C2.5 17.6563 2.5878 17.8683 2.74408 18.0245C2.90036 18.1808 3.11232 18.2686 3.33333 18.2686H8.33333C8.55435 18.2686 8.76631 18.1808 8.92259 18.0245C9.07887 17.8683 9.16667 17.6563 9.16667 17.4353V12.4353C9.16667 12.2143 9.07887 12.0023 8.92259 11.846C8.76631 11.6897 8.55435 11.6019 8.33333 11.6019ZM7.5 16.6019H4.16667V13.2686H7.5V16.6019ZM16.6667 3.26862H11.6667C11.4457 3.26862 11.2337 3.35641 11.0774 3.51269C10.9211 3.66897 10.8333 3.88094 10.8333 4.10195V9.10195C10.8333 9.32296 10.9211 9.53492 11.0774 9.6912C11.2337 9.84748 11.4457 9.93528 11.6667 9.93528H16.6667C16.8877 9.93528 17.0996 9.84748 17.2559 9.6912C17.4122 9.53492 17.5 9.32296 17.5 9.10195V4.10195C17.5 3.88094 17.4122 3.66897 17.2559 3.51269C17.0996 3.35641 16.8877 3.26862 16.6667 3.26862V3.26862ZM15.8333 8.26862H12.5V4.93528H15.8333V8.26862ZM16.6667 14.1019H15V12.4353C15 12.2143 14.9122 12.0023 14.7559 11.846C14.5996 11.6897 14.3877 11.6019 14.1667 11.6019C13.9457 11.6019 13.7337 11.6897 13.5774 11.846C13.4211 12.0023 13.3333 12.2143 13.3333 12.4353V14.1019H11.6667C11.4457 14.1019 11.2337 14.1897 11.0774 14.346C10.9211 14.5023 10.8333 14.7143 10.8333 14.9353C10.8333 15.1563 10.9211 15.3683 11.0774 15.5245C11.2337 15.6808 11.4457 15.7686 11.6667 15.7686H13.3333V17.4353C13.3333 17.6563 13.4211 17.8683 13.5774 18.0245C13.7337 18.1808 13.9457 18.2686 14.1667 18.2686C14.3877 18.2686 14.5996 18.1808 14.7559 18.0245C14.9122 17.8683 15 17.6563 15 17.4353V15.7686H16.6667C16.8877 15.7686 17.0996 15.6808 17.2559 15.5245C17.4122 15.3683 17.5 15.1563 17.5 14.9353C17.5 14.7143 17.4122 14.5023 17.2559 14.346C17.0996 14.1897 16.8877 14.1019 16.6667 14.1019ZM8.33333 3.26862H3.33333C3.11232 3.26862 2.90036 3.35641 2.74408 3.51269C2.5878 3.66897 2.5 3.88094 2.5 4.10195V9.10195C2.5 9.32296 2.5878 9.53492 2.74408 9.6912C2.90036 9.84748 3.11232 9.93528 3.33333 9.93528H8.33333C8.55435 9.93528 8.76631 9.84748 8.92259 9.6912C9.07887 9.53492 9.16667 9.32296 9.16667 9.10195V4.10195C9.16667 3.88094 9.07887 3.66897 8.92259 3.51269C8.76631 3.35641 8.55435 3.26862 8.33333 3.26862V3.26862ZM7.5 8.26862H4.16667V4.93528H7.5V8.26862Z" fill="#71839B"/>
</svg>
